<?xml version="1.0" encoding="UTF-8"?>
<!DOCTYPE svg PUBLIC "-//W3C//DTD SVG 1.1//EN" "http://www.w3.org/Graphics/SVG/1.1/DTD/svg11.dtd">
<!-- Creator: CorelDRAW X7 -->
<svg xmlns="http://www.w3.org/2000/svg" xml:space="preserve" width="8.5in" height="11in" version="1.1" style="shape-rendering:geometricPrecision; text-rendering:geometricPrecision; image-rendering:optimizeQuality; fill-rule:evenodd; clip-rule:evenodd"
viewBox="0 0 8500 11000"
 xmlns:xlink="http://www.w3.org/1999/xlink">
 <defs>
  <style type="text/css">
   <![CDATA[
    .fil1 {fill:#0098DA}
    .fil0 {fill:white}
   ]]>
  </style>
 </defs>
 <g id="Layer_x0020_1">
  <metadata id="CorelCorpID_0Corel-Layer"/>
  <circle id="Ellipse_15" class="fil0" cx="12248" cy="4277" r="1172" data-name="Group 54"/>
  <path id="Intersection_1" class="fil1" d="M1365 7233c619,-625 2061,-942 2868,-942 823,0 2303,329 2902,977 -692,881 -1751,1396 -2871,1396 -1136,0 -2209,-529 -2899,-1431l0 0zm1286 -3315c0,-874 708,-1582 1582,-1582 874,0 1582,708 1582,1582 0,874 -708,1582 -1582,1582 -873,-2 -1580,-709 -1582,-1582l0 0z" data-name="Intersection 1"/>
 </g>
</svg>
